<svg width="60" height="60" viewBox="0 0 60 60" fill="none" xmlns="http://www.w3.org/2000/svg">
<path d="M54 2H6C2.748 2 0 4.55171 0 7.57143V38.2143C0 41.234 2.748 43.7857 6 43.7857H34.558L44.261 53.6964C44.454 53.8932 44.724 54 45 54C45.121 54 45.243 53.9796 45.361 53.9378C45.746 53.7994 46 53.4549 46 53.0714V43.7857H54C57.252 43.7857 60 41.234 60 38.2143V7.57143C60 4.55171 57.252 2 54 2ZM58 38.2143C58 40.2274 56.168 41.9286 54 41.9286H45C44.448 41.9286 44 42.3446 44 42.8571V50.6701L35.5 42L32.821 41.9286C32.5 42 31.92 42.1657 31.5 42.5C31.082 42.8343 36.4 45.2543 32.821 41.9286H6C3.832 41.9286 2 40.2274 2 38.2143V7.57143C2 5.55829 3.832 3.85714 6 3.85714H54C56.168 3.85714 58 5.55829 58 7.57143V38.2143Z" fill="black"/>
</svg>
